<mxfile host="Electron" agent="Mozilla/5.0 (Windows NT 10.0; Win64; x64) AppleWebKit/537.36 (KHTML, like Gecko) draw.io/26.0.15 Chrome/132.0.6834.196 Electron/34.2.0 Safari/537.36" version="26.0.15">
  <diagram name="Page-1" id="46XmcOjh6RL6eQciWoyq">
    <mxGraphModel dx="2060" dy="1190" grid="1" gridSize="10" guides="1" tooltips="1" connect="1" arrows="1" fold="1" page="1" pageScale="1" pageWidth="827" pageHeight="1169" math="0" shadow="0">
      <root>
        <mxCell id="0" />
        <mxCell id="1" parent="0" />
        <mxCell id="ZbpuOolJb4QUSVSHTxkL-5" style="edgeStyle=orthogonalEdgeStyle;rounded=0;orthogonalLoop=1;jettySize=auto;html=1;exitX=1;exitY=0.5;exitDx=0;exitDy=0;entryX=0;entryY=0.5;entryDx=0;entryDy=0;" edge="1" parent="1" source="ZbpuOolJb4QUSVSHTxkL-1" target="ZbpuOolJb4QUSVSHTxkL-2">
          <mxGeometry relative="1" as="geometry" />
        </mxCell>
        <mxCell id="ZbpuOolJb4QUSVSHTxkL-6" value="JWT + Session" style="edgeLabel;html=1;align=center;verticalAlign=middle;resizable=0;points=[];" vertex="1" connectable="0" parent="ZbpuOolJb4QUSVSHTxkL-5">
          <mxGeometry x="0.5963" y="-1" relative="1" as="geometry">
            <mxPoint x="19" y="-1" as="offset" />
          </mxGeometry>
        </mxCell>
        <mxCell id="ZbpuOolJb4QUSVSHTxkL-8" style="edgeStyle=orthogonalEdgeStyle;rounded=0;orthogonalLoop=1;jettySize=auto;html=1;exitX=1;exitY=0.5;exitDx=0;exitDy=0;entryX=0;entryY=0.5;entryDx=0;entryDy=0;" edge="1" parent="1" source="ZbpuOolJb4QUSVSHTxkL-1" target="ZbpuOolJb4QUSVSHTxkL-7">
          <mxGeometry relative="1" as="geometry" />
        </mxCell>
        <mxCell id="ZbpuOolJb4QUSVSHTxkL-9" value="JWT" style="edgeLabel;html=1;align=center;verticalAlign=middle;resizable=0;points=[];" vertex="1" connectable="0" parent="ZbpuOolJb4QUSVSHTxkL-8">
          <mxGeometry x="0.6393" y="3" relative="1" as="geometry">
            <mxPoint x="19" y="3" as="offset" />
          </mxGeometry>
        </mxCell>
        <mxCell id="ZbpuOolJb4QUSVSHTxkL-11" style="edgeStyle=orthogonalEdgeStyle;rounded=0;orthogonalLoop=1;jettySize=auto;html=1;exitX=1;exitY=0.5;exitDx=0;exitDy=0;entryX=0;entryY=0.5;entryDx=0;entryDy=0;" edge="1" parent="1" source="ZbpuOolJb4QUSVSHTxkL-1" target="ZbpuOolJb4QUSVSHTxkL-10">
          <mxGeometry relative="1" as="geometry" />
        </mxCell>
        <mxCell id="ZbpuOolJb4QUSVSHTxkL-12" value="JWT + Session" style="edgeLabel;html=1;align=center;verticalAlign=middle;resizable=0;points=[];" vertex="1" connectable="0" parent="ZbpuOolJb4QUSVSHTxkL-11">
          <mxGeometry x="0.4849" y="-1" relative="1" as="geometry">
            <mxPoint x="14" y="-1" as="offset" />
          </mxGeometry>
        </mxCell>
        <mxCell id="ZbpuOolJb4QUSVSHTxkL-16" style="edgeStyle=orthogonalEdgeStyle;rounded=0;orthogonalLoop=1;jettySize=auto;html=1;exitX=1;exitY=0.5;exitDx=0;exitDy=0;entryX=0;entryY=0.5;entryDx=0;entryDy=0;" edge="1" parent="1" source="ZbpuOolJb4QUSVSHTxkL-1" target="ZbpuOolJb4QUSVSHTxkL-13">
          <mxGeometry relative="1" as="geometry" />
        </mxCell>
        <mxCell id="ZbpuOolJb4QUSVSHTxkL-1" value="API Gateway" style="ellipse;whiteSpace=wrap;html=1;aspect=fixed;" vertex="1" parent="1">
          <mxGeometry x="180" y="510" width="80" height="80" as="geometry" />
        </mxCell>
        <mxCell id="ZbpuOolJb4QUSVSHTxkL-2" value="Auth" style="whiteSpace=wrap;html=1;aspect=fixed;" vertex="1" parent="1">
          <mxGeometry x="590" y="300" width="80" height="80" as="geometry" />
        </mxCell>
        <mxCell id="ZbpuOolJb4QUSVSHTxkL-3" value="Redis" style="shape=cylinder3;whiteSpace=wrap;html=1;boundedLbl=1;backgroundOutline=1;size=15;" vertex="1" parent="1">
          <mxGeometry x="190" y="270" width="60" height="80" as="geometry" />
        </mxCell>
        <mxCell id="ZbpuOolJb4QUSVSHTxkL-4" style="edgeStyle=orthogonalEdgeStyle;rounded=0;orthogonalLoop=1;jettySize=auto;html=1;exitX=0.5;exitY=0;exitDx=0;exitDy=0;entryX=0.5;entryY=1;entryDx=0;entryDy=0;entryPerimeter=0;" edge="1" parent="1" source="ZbpuOolJb4QUSVSHTxkL-1" target="ZbpuOolJb4QUSVSHTxkL-3">
          <mxGeometry relative="1" as="geometry" />
        </mxCell>
        <mxCell id="ZbpuOolJb4QUSVSHTxkL-7" value="Messages" style="whiteSpace=wrap;html=1;aspect=fixed;" vertex="1" parent="1">
          <mxGeometry x="590" y="730" width="80" height="80" as="geometry" />
        </mxCell>
        <mxCell id="ZbpuOolJb4QUSVSHTxkL-17" style="edgeStyle=orthogonalEdgeStyle;rounded=0;orthogonalLoop=1;jettySize=auto;html=1;exitX=0.5;exitY=1;exitDx=0;exitDy=0;entryX=0.5;entryY=0;entryDx=0;entryDy=0;" edge="1" parent="1" source="ZbpuOolJb4QUSVSHTxkL-10" target="ZbpuOolJb4QUSVSHTxkL-13">
          <mxGeometry relative="1" as="geometry" />
        </mxCell>
        <mxCell id="ZbpuOolJb4QUSVSHTxkL-10" value="Maps" style="whiteSpace=wrap;html=1;aspect=fixed;" vertex="1" parent="1">
          <mxGeometry x="590" y="460" width="80" height="80" as="geometry" />
        </mxCell>
        <mxCell id="ZbpuOolJb4QUSVSHTxkL-13" value="Notifs" style="whiteSpace=wrap;html=1;aspect=fixed;" vertex="1" parent="1">
          <mxGeometry x="590" y="570" width="80" height="80" as="geometry" />
        </mxCell>
        <mxCell id="ZbpuOolJb4QUSVSHTxkL-19" value="BDD" style="shape=cylinder3;whiteSpace=wrap;html=1;boundedLbl=1;backgroundOutline=1;size=15;" vertex="1" parent="1">
          <mxGeometry x="860" y="510" width="60" height="80" as="geometry" />
        </mxCell>
        <mxCell id="ZbpuOolJb4QUSVSHTxkL-20" style="edgeStyle=orthogonalEdgeStyle;rounded=0;orthogonalLoop=1;jettySize=auto;html=1;exitX=1;exitY=0.5;exitDx=0;exitDy=0;entryX=0;entryY=0.5;entryDx=0;entryDy=0;entryPerimeter=0;curved=1;" edge="1" parent="1" source="ZbpuOolJb4QUSVSHTxkL-2" target="ZbpuOolJb4QUSVSHTxkL-19">
          <mxGeometry relative="1" as="geometry" />
        </mxCell>
        <mxCell id="ZbpuOolJb4QUSVSHTxkL-21" style="edgeStyle=orthogonalEdgeStyle;rounded=0;orthogonalLoop=1;jettySize=auto;html=1;exitX=1;exitY=0.5;exitDx=0;exitDy=0;entryX=0;entryY=0.5;entryDx=0;entryDy=0;entryPerimeter=0;curved=1;" edge="1" parent="1" source="ZbpuOolJb4QUSVSHTxkL-10" target="ZbpuOolJb4QUSVSHTxkL-19">
          <mxGeometry relative="1" as="geometry" />
        </mxCell>
        <mxCell id="ZbpuOolJb4QUSVSHTxkL-22" style="edgeStyle=orthogonalEdgeStyle;rounded=0;orthogonalLoop=1;jettySize=auto;html=1;exitX=1;exitY=0.5;exitDx=0;exitDy=0;entryX=0;entryY=0.5;entryDx=0;entryDy=0;entryPerimeter=0;curved=1;" edge="1" parent="1" source="ZbpuOolJb4QUSVSHTxkL-7" target="ZbpuOolJb4QUSVSHTxkL-19">
          <mxGeometry relative="1" as="geometry" />
        </mxCell>
      </root>
    </mxGraphModel>
  </diagram>
</mxfile>
